<?xml version="1.0" encoding="UTF-8"?>
<svg width="23px" height="23px" viewBox="0 0 23 23" version="1.1" xmlns="http://www.w3.org/2000/svg" xmlns:xlink="http://www.w3.org/1999/xlink">
    <!-- Generator: Sketch 50.2 (55047) - http://www.bohemiancoding.com/sketch -->
    <title>icon/profile copy 2</title>
    <desc>Created with Sketch.</desc>
    <defs>
        <path d="M9.5,19 C4.25329488,19 0,14.7467051 0,9.5 C0,4.25329488 4.25329488,0 9.5,0 C14.7467051,0 19,4.25329488 19,9.5 C19,14.7467051 14.7467051,19 9.5,19 Z M9.61585366,16.3507371 C13.338743,16.3507371 16.3549943,13.3344857 16.3549943,9.61585366 C16.3549943,9.41541175 16.190598,9.25292148 15.9878049,9.25292148 C15.7850117,9.25292148 15.6206154,9.41541175 15.6206154,9.61585366 C15.6206154,12.9354846 12.9312273,15.6248727 9.61585366,15.6248727 C9.41306053,15.6248727 9.24866422,15.787363 9.24866422,15.9878049 C9.24866422,16.1882468 9.41306053,16.3507371 9.61585366,16.3507371 Z M9.61585366,2.88097027 C5.89296432,2.88097027 2.876713,5.89722159 2.876713,9.61585366 C2.876713,9.81629556 3.04110931,9.97878583 3.24390244,9.97878583 C3.44669557,9.97878583 3.61109188,9.81629556 3.61109188,9.61585366 C3.61109188,6.29622276 6.30048003,3.60683461 9.61585366,3.60683461 C9.81864679,3.60683461 9.9830431,3.44434434 9.9830431,3.24390244 C9.9830431,3.04346053 9.81864679,2.88097027 9.61585366,2.88097027 Z M9.5,12.0180381 C10.8840421,12.0180381 12.0095236,10.8925567 12.0095236,9.5 C12.0095236,8.10744332 10.8840421,6.98196191 9.5,6.98196191 C8.11595786,6.98196191 6.99047645,8.10744332 6.99047645,9.5 C6.99047645,10.8925567 8.11595786,12.0180381 9.5,12.0180381 Z M9.5,12.7439024 C7.70844215,12.7439024 6.25609756,11.2915578 6.25609756,9.5 C6.25609756,7.70844215 7.70844215,6.25609756 9.5,6.25609756 C11.2915578,6.25609756 12.7439024,7.70844215 12.7439024,9.5 C12.7439024,11.2915578 11.2915578,12.7439024 9.5,12.7439024 Z M9.5,10.4268293 C10.0118737,10.4268293 10.4268293,10.0118737 10.4268293,9.5 C10.4268293,8.98812633 10.0118737,8.57317073 9.5,8.57317073 C8.98812633,8.57317073 8.57317073,8.98812633 8.57317073,9.5 C8.57317073,10.0118737 8.98812633,10.4268293 9.5,10.4268293 Z" id="path-1"></path>
    </defs>
    <g id="icon/profile-copy-2" stroke="none" stroke-width="1" fill="none" fill-rule="evenodd">
        <g id="color/black-copy" transform="translate(2.000000, 2.000000)">
            <mask id="mask-2" fill="white">
                <use xlink:href="#path-1"></use>
            </mask>
            <use id="Mask" fill="#ffffff" xlink:href="#path-1"></use>
            <g id="color/dark-gray" mask="url(#mask-2)" fill="#ffffff">
                <rect id="Rectangle-8" x="0" y="0" width="21.9090669" height="21.9090669"></rect>
            </g>
        </g>
    </g>
</svg>