<svg width="39" height="39" viewBox="0 0 39 39" fill="none" xmlns="http://www.w3.org/2000/svg">
<circle cx="19.5" cy="19.5" r="19.5" fill="#C4C4C4"/>
<circle cx="19.5" cy="19.5" r="19.5" fill="url(#paint0_linear)"/>
<path d="M20.4336 23.3097H18.604C18.4974 23.3101 18.3957 23.2701 18.3241 23.1995C18.2524 23.1288 18.2176 23.0343 18.2283 22.9393L18.3898 21.2896C18.4055 21.1142 18.5692 20.9793 18.7655 20.9798H20.5952C20.7017 20.9794 20.8034 21.0194 20.8751 21.09C20.9467 21.1607 20.9815 21.2552 20.9709 21.3502L20.8093 22.9999C20.7936 23.1753 20.6299 23.3102 20.4336 23.3097ZM20.7269 20.0797H18.8632C18.6573 20.0797 18.4904 19.919 18.4904 19.7208L18.9974 14.1473C19.0201 13.9661 19.1805 13.8302 19.3701 13.8315H21.2338C21.4397 13.8315 21.6066 13.9922 21.6066 14.1904L21.0847 19.7674C21.0611 19.9419 20.9095 20.0741 20.7269 20.0797ZM31.6853 13.5803C31.8836 13.8105 31.9805 14.1103 31.9542 14.4123L31.2257 22.6924C31.2024 22.9632 31.0815 23.2166 30.8853 23.406L24.9284 29.1561C24.7157 29.3606 24.4312 29.4746 24.1353 29.474H17.7937L12.2112 34.5881L12.6435 29.4706H9.80457C9.48572 29.4709 9.18142 29.3381 8.96588 29.1046C8.75033 28.8711 8.64336 28.5585 8.67105 28.2428L10.4037 8.59803C10.4631 8.02069 10.9531 7.58204 11.5372 7.58332H25.9938C26.3264 7.58322 26.6424 7.72783 26.8584 7.97905L31.6853 13.5803ZM27.2703 21.1128L27.7333 16.002C27.7512 15.699 27.6457 15.4016 27.4405 15.1767L24.7173 12.0514C24.5015 11.8045 24.1887 11.6626 23.8595 11.6625H15.2815C14.6975 11.6612 14.2075 12.0998 14.148 12.6772L13.1268 24.1772C13.1033 24.4919 13.2117 24.8022 13.4264 25.0347C13.641 25.2672 13.9428 25.4012 14.2604 25.405H22.6954C22.988 25.4057 23.2697 25.2943 23.4817 25.0938L26.9299 21.8299C27.1268 21.6395 27.2478 21.3848 27.2703 21.1128Z" fill="white"/>
<defs>
<linearGradient id="paint0_linear" x1="34.0062" y1="-2.24877e-07" x2="4.99383" y2="39" gradientUnits="userSpaceOnUse">
<stop stop-color="#F59C07"/>
<stop offset="1" stop-color="#F57507"/>
</linearGradient>
</defs>
</svg>
