<svg width="39" height="39" viewBox="0 0 39 39" fill="none" xmlns="http://www.w3.org/2000/svg">
<circle cx="19.5" cy="19.5" r="19.5" fill="url(#paint0_radial)"/>
<circle cx="19.5" cy="19.5" r="19.5" fill="url(#paint1_radial)"/>
<path d="M19.6373 8C16.4771 8 16.0805 8.01382 14.8393 8.0703C13.6005 8.12703 12.7549 8.32315 12.015 8.61091C11.2497 8.90812 10.6005 9.3057 9.9537 9.95273C9.30642 10.5995 8.90885 11.2487 8.61067 12.0138C8.32218 12.7539 8.12582 13.5998 8.07006 14.8381C8.01455 16.0793 8 16.4761 8 19.6364C8 22.7966 8.01406 23.192 8.0703 24.4332C8.12727 25.672 8.32339 26.5176 8.61091 27.2575C8.90836 28.0228 9.30594 28.672 9.95297 29.3188C10.5995 29.9661 11.2487 30.3646 12.0136 30.6618C12.7539 30.9496 13.5998 31.1457 14.8383 31.2024C16.0795 31.2589 16.4759 31.2727 19.6359 31.2727C22.7964 31.2727 23.1918 31.2589 24.433 31.2024C25.6718 31.1457 26.5183 30.9496 27.2587 30.6618C28.0238 30.3646 28.672 29.9661 29.3185 29.3188C29.9658 28.672 30.3634 28.0228 30.6616 27.2577C30.9476 26.5176 31.144 25.6718 31.2022 24.4335C31.2579 23.1922 31.2725 22.7966 31.2725 19.6364C31.2725 16.4761 31.2579 16.0795 31.2022 14.8383C31.144 13.5995 30.9476 12.7539 30.6616 12.0141C30.3634 11.2487 29.9658 10.5995 29.3185 9.95273C28.6713 9.30545 28.024 8.90788 27.2579 8.61091C26.5161 8.32315 25.6701 8.12703 24.4313 8.0703C23.1901 8.01382 22.7949 8 19.6337 8H19.6373ZM18.5935 10.097C18.9033 10.0965 19.249 10.097 19.6373 10.097C22.7442 10.097 23.1125 10.1081 24.3394 10.1639C25.4739 10.2158 26.0897 10.4053 26.4999 10.5646C27.0429 10.7755 27.4301 11.0276 27.8371 11.4349C28.2444 11.8422 28.4965 12.2301 28.7079 12.7731C28.8672 13.1828 29.057 13.7985 29.1086 14.9331C29.1644 16.1598 29.1765 16.5282 29.1765 19.6337C29.1765 22.7392 29.1644 23.1076 29.1086 24.3343C29.0567 25.4688 28.8672 26.0846 28.7079 26.4943C28.497 27.0373 28.2444 27.424 27.8371 27.831C27.4298 28.2383 27.0432 28.4904 26.4999 28.7013C26.0902 28.8613 25.4739 29.0504 24.3394 29.1023C23.1127 29.1581 22.7442 29.1702 19.6373 29.1702C16.5302 29.1702 16.1619 29.1581 14.9353 29.1023C13.8007 29.0499 13.185 28.8604 12.7745 28.7011C12.2315 28.4902 11.8436 28.2381 11.4364 27.8308C11.0291 27.4235 10.777 27.0366 10.5656 26.4933C10.4063 26.0836 10.2165 25.4679 10.1648 24.3333C10.1091 23.1067 10.0979 22.7382 10.0979 19.6308C10.0979 16.5234 10.1091 16.1568 10.1648 14.9302C10.2167 13.7956 10.4063 13.1799 10.5656 12.7697C10.7765 12.2267 11.0291 11.8388 11.4364 11.4315C11.8436 11.0242 12.2315 10.7721 12.7745 10.5607C13.1847 10.4007 13.8007 10.2116 14.9353 10.1595C16.0087 10.111 16.4247 10.0965 18.5935 10.0941V10.097ZM25.8487 12.0291C25.0778 12.0291 24.4524 12.6538 24.4524 13.425C24.4524 14.1959 25.0778 14.8213 25.8487 14.8213C26.6196 14.8213 27.2451 14.1959 27.2451 13.425C27.2451 12.6541 26.6196 12.0286 25.8487 12.0286V12.0291ZM19.6373 13.6606C16.3372 13.6606 13.6616 16.3362 13.6616 19.6364C13.6616 22.9365 16.3372 25.6109 19.6373 25.6109C22.9375 25.6109 25.6121 22.9365 25.6121 19.6364C25.6121 16.3362 22.9372 13.6606 19.6371 13.6606H19.6373ZM19.6373 15.7576C21.7794 15.7576 23.5161 17.4941 23.5161 19.6364C23.5161 21.7784 21.7794 23.5152 19.6373 23.5152C17.495 23.5152 15.7585 21.7784 15.7585 19.6364C15.7585 17.4941 17.495 15.7576 19.6373 15.7576V15.7576Z" fill="white"/>
<defs>
<radialGradient id="paint0_radial" cx="0" cy="0" r="1" gradientUnits="userSpaceOnUse" gradientTransform="translate(10.3594 42.0038) rotate(-90) scale(38.6519 35.9493)">
<stop stop-color="#FFDD55"/>
<stop offset="0.1" stop-color="#FFDD55"/>
<stop offset="0.5" stop-color="#FF543E"/>
<stop offset="1" stop-color="#C837AB"/>
</radialGradient>
<radialGradient id="paint1_radial" cx="0" cy="0" r="1" gradientUnits="userSpaceOnUse" gradientTransform="translate(-6.53271 2.80949) rotate(78.6806) scale(17.2775 71.2188)">
<stop stop-color="#3771C8"/>
<stop offset="0.128" stop-color="#3771C8"/>
<stop offset="1" stop-color="#6600FF" stop-opacity="0"/>
</radialGradient>
</defs>
</svg>
