<svg xmlns="http://www.w3.org/2000/svg" width="50" height="50" viewBox="0 0 60 60" id="icon">
    <path fill="#37AEE2"
        d="M46.413 15.64H13.587c-3.02 0-5.47 2.45-5.47 5.47v17.78a5.47 5.47 0 0 0 5.47 5.47h32.826a5.47 5.47 0 0 0 5.47-5.47V21.11a5.47 5.47 0 0 0-5.47-5.47zM10.85 22.82L20.425 30l-9.573 7.182V22.82zm38.3 16.07a2.738 2.738 0 0 1-2.736 2.737H13.587a2.74 2.74 0 0 1-2.736-2.736l10.714-8.035 5.975 4.483a4.107 4.107 0 0 0 4.922 0l5.974-4.483L49.15 38.89zm0-1.708l-9.574-7.18 9.573-7.182v14.362zm-17.508-2.94A2.723 2.723 0 0 1 30 34.79c-.595 0-1.163-.19-1.642-.548L22.703 30l-1.14-.855L10.85 21.11a2.74 2.74 0 0 1 2.736-2.735h32.826a2.738 2.738 0 0 1 2.735 2.735L31.642 34.242z" />
    </svg>