<svg xmlns="http://www.w3.org/2000/svg" width="595" height="595" viewBox="0 0 595 595" data-v-b58d14b0=""><path fill="#f87710" d="M144.648,197.7a63.211,63.211,0,0,1,18.671,2.806,511.882,511.882,0,0,1,73.8-67.907,62.215,62.215,0,0,1,1.52-34.755A464.056,464.056,0,0,0,141.324,44.3,298.847,298.847,0,0,0,57.8,121.34a467.888,467.888,0,0,0,59.429,82.678A62.887,62.887,0,0,1,144.648,197.7ZM81.359,260.989a63.087,63.087,0,0,1,5.161-25.016A510.09,510.09,0,0,1,31.683,163.96a297.359,297.359,0,0,0,10.2,285.726A504.181,504.181,0,0,1,94.286,299.205,62.808,62.808,0,0,1,81.359,260.989Zm217.276-206.4A62.986,62.986,0,0,1,341.824,71.7,504.262,504.262,0,0,1,445.806,39.638a297.495,297.495,0,0,0-252.95-20.65,509.95,509.95,0,0,1,73.63,44.45A62.86,62.86,0,0,1,298.635,54.591Zm94.656,298.124A63.274,63.274,0,0,1,409.737,331.5a463.093,463.093,0,0,0-86.4-155.32,63.173,63.173,0,0,1-61.478-6.842,465.673,465.673,0,0,0-63.477,58.322,63.1,63.1,0,0,1,6.668,52.3A460.246,460.246,0,0,0,393.291,352.715Zm82.1,85.44q1.309,17.976,1.333,36.275a513.2,513.2,0,0,1-3.958,63.413,298.064,298.064,0,0,0,108.223-150,505.534,505.534,0,0,1-70.507,11.822A63.466,63.466,0,0,1,475.394,438.155Zm-96.933-42.9a504.749,504.749,0,0,1-200.785-80.33,62.955,62.955,0,0,1-33.016,9.37,63.623,63.623,0,0,1-12.979-1.345A460.163,460.163,0,0,0,79.968,500.339,298.037,298.037,0,0,0,181.68,571.6,506.3,506.3,0,0,1,378.461,395.257ZM497.208,77a459.828,459.828,0,0,0-135.6,34.548,58.832,58.832,0,0,1,.33,6.339,63.021,63.021,0,0,1-6.5,27.815,507.35,507.35,0,0,1,96.013,171.1,63.309,63.309,0,0,1,57.2,38.617,459.57,459.57,0,0,0,83.39-16.286A300.62,300.62,0,0,0,595,297.491,296.712,296.712,0,0,0,497.208,77Zm-86.9,352.074a462.168,462.168,0,0,0-185.07,157.041,297.788,297.788,0,0,0,197.811-18.9,462.764,462.764,0,0,0,9.377-92.781c0-11.479-.517-22.843-1.377-34.1A63.337,63.337,0,0,1,410.307,429.074Z" data-v-b58d14b0=""></path></svg>