<svg width="39" height="39" viewBox="0 0 39 39" fill="none" xmlns="http://www.w3.org/2000/svg">
<g clip-path="url(#clip0_19_305)">
<path fill-rule="evenodd" clip-rule="evenodd" d="M33.565 22.4977C34.8587 23.7608 36.2242 24.9491 37.3844 26.3396C37.897 26.9575 38.3823 27.5951 38.7535 28.3121C39.2795 29.3315 38.8031 30.4532 37.889 30.514L32.2074 30.5115C30.742 30.6331 29.573 30.0431 28.5901 29.0412C27.8035 28.24 27.075 27.3872 26.3186 26.5589C26.0085 26.2204 25.6839 25.9019 25.2962 25.6501C24.5206 25.1466 23.8473 25.3008 23.4041 26.1097C22.9527 26.9325 22.8503 27.8435 22.806 28.7605C22.7451 30.0984 22.3407 30.4501 20.9968 30.5114C18.1247 30.6468 15.399 30.2123 12.8668 28.7634C10.6344 27.4861 8.90327 25.683 7.39649 23.6416C4.46278 19.6667 2.21614 15.2988 0.196948 10.8086C-0.257557 9.79699 0.0748327 9.25394 1.19104 9.23472C3.04455 9.19871 4.89781 9.20128 6.7535 9.23216C7.50682 9.24318 8.00553 9.67526 8.29641 10.3869C9.29921 12.8527 10.5263 15.1986 12.0665 17.3731C12.4766 17.9521 12.8949 18.531 13.4905 18.9385C14.1494 19.3896 14.651 19.2401 14.961 18.5061C15.1577 18.0407 15.2438 17.5395 15.2881 17.041C15.435 15.3261 15.4543 13.6142 15.1968 11.9054C15.0386 10.8389 14.4379 10.1485 13.3737 9.94665C12.8307 9.84376 12.9115 9.64169 13.1745 9.33172C13.6312 8.79713 14.0607 8.46436 14.9169 8.46436H21.338C22.3489 8.66387 22.5734 9.11799 22.7118 10.1351L22.7173 17.2677C22.7063 17.6614 22.914 18.8299 23.6232 19.0906C24.1909 19.2761 24.565 18.822 24.9056 18.462C26.443 16.8303 27.5403 14.902 28.5205 12.9052C28.9555 12.0272 29.3296 11.1154 29.6921 10.2043C29.9607 9.52828 30.3821 9.19564 31.1436 9.21037L37.3236 9.21588C37.5068 9.21588 37.6922 9.21857 37.8697 9.24894C38.9111 9.42641 39.1964 9.87438 38.8748 10.8913C38.368 12.4867 37.382 13.8163 36.4179 15.152C35.3873 16.578 34.285 17.9553 33.263 19.3898C32.324 20.6997 32.3986 21.36 33.565 22.4977Z" fill="#007DF1"/>
</g>
<defs>
<clipPath id="clip0_19_305">
<rect width="39" height="39" fill="white"/>
</clipPath>
</defs>
</svg>
