<svg width="26" height="26" viewBox="0 0 26 26" fill="none" xmlns="http://www.w3.org/2000/svg" data-v-b58d14b0="">
    <g clip-path="url(#clip0_1319_4675)" data-v-b58d14b0="">
        <path
            d="M5.26036 2.55499C7.18484 1.12897 9.45939 0.266935 11.83 0.0527344V3.97551C10.2976 4.17418 8.83411 4.76087 7.58225 5.68849C6.01474 6.85 4.86202 8.48452 4.2941 10.351C3.72618 12.2174 3.77313 14.217 4.42803 16.0547C5.08294 17.8925 6.31111 19.4711 7.93141 20.5577C9.55171 21.6444 11.4783 22.1815 13.4271 22.09C15.3759 21.9984 17.2437 21.2829 18.755 20.0491C20.2662 18.8153 21.341 17.1285 21.8206 15.2374C22.1552 13.9184 22.188 12.5487 21.9259 11.2282L25.22 8.57999L25.2178 8.55864C26.107 11.0047 26.2428 13.6658 25.6009 16.1964C24.9156 18.8979 23.3803 21.3076 21.2214 23.0702C19.0624 24.8328 16.3942 25.8548 13.6102 25.9857C10.8262 26.1165 8.07387 25.3491 5.75916 23.7968C3.44445 22.2444 1.68991 19.9892 0.754335 17.3639C-0.18124 14.7386 -0.248316 11.882 0.562999 9.21568C1.37431 6.54932 3.02107 4.21429 5.26036 2.55499Z"
            fill="#fccb01" data-v-b58d14b0=""></path>
        <path
            d="M22.736 4.38545L22.7498 4.42002L20.5485 7.91627C19.748 6.72998 18.6752 5.74257 17.4198 5.04366V13C17.4198 15.4411 15.4409 17.42 12.9998 17.42C10.5587 17.42 8.57983 15.4411 8.57983 13C8.57983 10.5589 10.5587 8.58002 12.9998 8.58002C13.9147 8.58002 14.7646 8.85797 15.4698 9.33404V0.234375C18.3395 0.786329 20.8734 2.28186 22.736 4.38545Z"
            fill="#fb3f1d" data-v-b58d14b0=""></path>
    </g>
    <defs data-v-b58d14b0="">
        <clipPath id="clip0_1319_4675" data-v-b58d14b0="">
            <rect width="26" height="26" fill="white" data-v-b58d14b0=""></rect>
        </clipPath>
    </defs>
</svg>