<svg width="39" height="39" viewBox="0 0 39 39" fill="none" xmlns="http://www.w3.org/2000/svg">
<path d="M19.5 39C30.2696 39 39 30.2696 39 19.5C39 8.73045 30.2696 0 19.5 0C8.73045 0 0 8.73045 0 19.5C0 30.2696 8.73045 39 19.5 39Z" fill="#FF0000"/>
<path d="M11.0667 27.2231C9.16436 25.1875 8 22.4535 8 19.4476C8 16.6002 9.04478 13.9969 10.7719 12" stroke="white" stroke-width="2.62857"/>
<path d="M13.9182 15.0667C12.9563 16.2667 12.3809 17.79 12.3809 19.4477C12.3809 21.3414 13.1319 23.0598 14.3523 24.3212" stroke="white" stroke-width="2.62857"/>
<path d="M27.9331 27.2231C29.8354 25.1875 30.9998 22.4535 30.9998 19.4476C30.9998 16.6002 29.955 13.9969 28.2279 12" stroke="white" stroke-width="2.62857"/>
<path d="M25.082 15.0667C26.044 16.2667 26.6194 17.79 26.6194 19.4477C26.6194 21.3414 25.8684 23.0598 24.648 24.3212" stroke="white" stroke-width="2.62857"/>
<circle cx="19.3906" cy="19.4476" r="3.06667" fill="white"/>
</svg>
